# xmcd
# Copyright (C) 1995-1998 Ti Kan
#
# Track frame offsets:
#       150
#       20588
#       62819
#       81750
#       94443
#       107586
#       128926
#       147223
#       160919
#       174277
#       213810
#       236564
#       256008
#       277380
#
# Disc length: 3904 seconds
#
# Revision: 0
# Processed by: cddbd v1.5.2PL0 Copyright (c) Steve Scherf et al.
# Submitted via: CD-Import v1.0
#
DISCID=c30f3e0e
DTITLE=Green Day - Bullet In A Bible
DYEAR=1900
DGENRE=
TTITLE0=American Idiot (Live)
TTITLE1=Jesus Of Suburbia (Live)
TTITLE2=Holiday (Live)
TTITLE3=Are We The Waiting (Live)
TTITLE4=St. Jimmy (Live)
TTITLE5=Longview (Live)
TTITLE6=Hitchin' A Ride (Live)
TTITLE7=Brain Stew (Live)
TTITLE8=Basket Case (Live)
TTITLE9=King For A Day - Shout (Live)
TTITLE10=Wake Me Up When September Ends (Live)
TTITLE11=Minority (Live)
TTITLE12=Boulevard Of Broken Dreams (Live)
TTITLE13=Good Riddance (Time Of Your Live) (Live)
EXTD=
EXTT0=
EXTT1=
EXTT2=
EXTT3=
EXTT4=
EXTT5=
EXTT6=
EXTT7=
EXTT8=
EXTT9=
EXTT10=
EXTT11=
EXTT12=
EXTT13=
PLAYORDER=
